<?xml version="1.0" encoding="UTF-8"?>
<mxfile host="app.diagrams.net">
  <diagram name="DatingApp_Architecture" id="0">
    <mxGraphModel dx="1400" dy="900" grid="1" gridSize="10" guides="1" tooltips="1" connect="1" arrows="1" fold="1" page="1" pageScale="1" pageWidth="827" pageHeight="1169">
      <root>
        <mxCell id="0"/>
        <mxCell id="1" parent="0"/>

        <!-- 1. User Devices Layer -->
        <mxCell id="2" value="Mobile App (iOS/Android)" style="rounded=1;whiteSpace=wrap;html=1;fillColor=#D5E8D4;strokeColor=#82B366;" vertex="1" parent="1">
          <mxGeometry x="20" y="20" width="160" height="60" as="geometry"/>
        </mxCell>
        <mxCell id="3" value="Web App (Browser)" style="rounded=1;whiteSpace=wrap;html=1;fillColor=#D5E8D4;strokeColor=#82B366;" vertex="1" parent="1">
          <mxGeometry x="20" y="100" width="160" height="60" as="geometry"/>
        </mxCell>

        <!-- 2. DNS & CDN Layer -->
        <mxCell id="4" value="Route 53 (DNS)" style="rounded=1;whiteSpace=wrap;html=1;fillColor=#FFF2CC;strokeColor=#D6B656;" vertex="1" parent="1">
          <mxGeometry x="220" y="20" width="140" height="60" as="geometry"/>
        </mxCell>
        <mxCell id="5" value="CloudFront (CDN)" style="rounded=1;whiteSpace=wrap;html=1;fillColor=#FFF2CC;strokeColor=#D6B656;" vertex="1" parent="1">
          <mxGeometry x="220" y="100" width="140" height="60" as="geometry"/>
        </mxCell>

        <!-- 3. Edge/API Layer -->
        <mxCell id="6" value="ALB (Load Balancer)" style="rounded=1;whiteSpace=wrap;html=1;fillColor=#E1D5E7;strokeColor=#9673A6;" vertex="1" parent="1">
          <mxGeometry x="400" y="20" width="140" height="60" as="geometry"/>
        </mxCell>
        <mxCell id="7" value="API Gateway" style="rounded=1;whiteSpace=wrap;html=1;fillColor=#E1D5E7;strokeColor=#9673A6;" vertex="1" parent="1">
          <mxGeometry x="400" y="100" width="140" height="60" as="geometry"/>
        </mxCell>

        <!-- 4. Authentication -->
        <mxCell id="8" value="Cognito (Auth)" style="rounded=1;whiteSpace=wrap;html=1;fillColor=#DAE8FC;strokeColor=#6C8EBF;" vertex="1" parent="1">
          <mxGeometry x="580" y="20" width="140" height="60" as="geometry"/>
        </mxCell>

        <!-- 5. EKS Cluster (Containerized Services) -->
        <mxCell id="9" value="EKS Cluster (Services)" style="rounded=1;whiteSpace=wrap;html=1;fillColor=#F8CECC;strokeColor=#B85450;" vertex="1" parent="1">
          <mxGeometry x="760" y="0" width="360" height="580" as="geometry"/>
        </mxCell>

        <!-- 5.1 Onboarding Service -->
        <mxCell id="10" value="Onboarding\nService" style="rounded=1;whiteSpace=wrap;html=1;fillColor=#FFFFFF;strokeColor=#B85450;" vertex="1" parent="9">
          <mxGeometry x="20" y="20" width="140" height="60" as="geometry"/>
        </mxCell>

        <!-- 5.2 Profile & Compatibility Service -->
        <mxCell id="11" value="Profile &\nCompatibility\nService" style="rounded=1;whiteSpace=wrap;html=1;fillColor=#FFFFFF;strokeColor=#B85450;" vertex="1" parent="9">
          <mxGeometry x="20" y="100" width="140" height="60" as="geometry"/>
        </mxCell>

        <!-- 5.3 Matching Engine Service -->
        <mxCell id="12" value="Matching\nEngine\nService" style="rounded=1;whiteSpace=wrap;html=1;fillColor=#FFFFFF;strokeColor=#B85450;" vertex="1" parent="9">
          <mxGeometry x="20" y="180" width="140" height="60" as="geometry"/>
        </mxCell>

        <!-- 5.4 Messaging Service -->
        <mxCell id="13" value="Messaging\nService" style="rounded=1;whiteSpace=wrap;html=1;fillColor=#FFFFFF;strokeColor=#B85450;" vertex="1" parent="9">
          <mxGeometry x="20" y="260" width="140" height="60" as="geometry"/>
        </mxCell>

        <!-- 5.5 Notification Service -->
        <mxCell id="14" value="Notification\nService" style="rounded=1;whiteSpace=wrap;html=1;fillColor=#FFFFFF;strokeColor=#B85450;" vertex="1" parent="9">
          <mxGeometry x="20" y="340" width="140" height="60" as="geometry"/>
        </mxCell>

        <!-- 5.6 Admin & Moderation Service -->
        <mxCell id="15" value="Admin &\nModeration\nService" style="rounded=1;whiteSpace=wrap;html=1;fillColor=#FFFFFF;strokeColor=#B85450;" vertex="1" parent="9">
          <mxGeometry x="200" y="20" width="140" height="60" as="geometry"/>
        </mxCell>

        <!-- 5.7 Analytics Service -->
        <mxCell id="16" value="Analytics &\nReporting\nService" style="rounded=1;whiteSpace=wrap;html=1;fillColor=#FFFFFF;strokeColor=#B85450;" vertex="1" parent="9">
          <mxGeometry x="200" y="100" width="140" height="60" as="geometry"/>
        </mxCell>

        <!-- 5.8 Media Processing Service -->
        <mxCell id="17" value="Media Processing\nService\n(Selfie Verification)" style="rounded=1;whiteSpace=wrap;html=1;fillColor=#FFFFFF;strokeColor=#B85450;" vertex="1" parent="9">
          <mxGeometry x="200" y="180" width="140" height="60" as="geometry"/>
        </mxCell>

        <!-- 6. Data Layer -->
        <mxCell id="18" value="RDS (PostgreSQL)\n(Relational Data)" style="rounded=1;whiteSpace=wrap;html=1;fillColor=#E1D5E7;strokeColor=#6C8EBF;" vertex="1" parent="1">
          <mxGeometry x="1180" y="20" width="160" height="80" as="geometry"/>
        </mxCell>
        <mxCell id="19" value="ElastiCache\n(Redis)\n(In-Memory Cache)" style="rounded=1;whiteSpace=wrap;html=1;fillColor=#E1D5E7;strokeColor=#6C8EBF;" vertex="1" parent="1">
          <mxGeometry x="1180" y="120" width="160" height="80" as="geometry"/>
        </mxCell>
        <mxCell id="20" value="DynamoDB\n(NoSQL Store)\n(Matches & Messages)" style="rounded=1;whiteSpace=wrap;html=1;fillColor=#E1D5E7;strokeColor=#6C8EBF;" vertex="1" parent="1">
          <mxGeometry x="1180" y="240" width="160" height="80" as="geometry"/>
        </mxCell>
        <mxCell id="21" value="S3\n(Object Storage)\n(Media + Static Assets)" style="rounded=1;whiteSpace=wrap;html=1;fillColor=#E1D5E7;strokeColor=#6C8EBF;" vertex="1" parent="1">
          <mxGeometry x="1180" y="360" width="160" height="80" as="geometry"/>
        </mxCell>

        <!-- 7. CI/CD & Monitoring -->
        <mxCell id="22" value="GitHub\n(Code Repo)" style="rounded=1;whiteSpace=wrap;html=1;fillColor=#F8CECC;strokeColor=#B85450;" vertex="1" parent="1">
          <mxGeometry x="20" y="220" width="140" height="60" as="geometry"/>
        </mxCell>
        <mxCell id="23" value="GitHub Actions\n/ CodePipeline\n(CI/CD)" style="rounded=1;whiteSpace=wrap;html=1;fillColor=#F8CECC;strokeColor=#B85450;" vertex="1" parent="1">
          <mxGeometry x="200" y="220" width="160" height="60" as="geometry"/>
        </mxCell>
        <mxCell id="24" value="CloudWatch\n(Logs & Metrics)" style="rounded=1;whiteSpace=wrap;html=1;fillColor=#DAE8FC;strokeColor=#6C8EBF;" vertex="1" parent="1">
          <mxGeometry x="1300" y="500" width="140" height="60" as="geometry"/>
        </mxCell>
        <mxCell id="25" value="X-Ray\n(Tracing)" style="rounded=1;whiteSpace=wrap;html=1;fillColor=#DAE8FC;strokeColor=#6C8EBF;" vertex="1" parent="1">
          <mxGeometry x="1300" y="580" width="140" height="60" as="geometry"/>
        </mxCell>

        <!-- 8. Connections: Users → DNS/CDN -->
        <mxCell id="e1" style="edgeStyle=orthogonalEdgeStyle;rounded=1;endArrow=block;html=1;" edge="1" parent="1" source="2" target="4">
          <mxGeometry relative="1" as="geometry"/>
        </mxCell>
        <mxCell id="e2" style="edgeStyle=orthogonalEdgeStyle;rounded=1;endArrow=block;html=1;" edge="1" parent="1" source="3" target="4">
          <mxGeometry relative="1" as="geometry"/>
        </mxCell>
        <mxCell id="e3" style="edgeStyle=orthogonalEdgeStyle;rounded=1;endArrow=block;html=1;" edge="1" parent="1" source="4" target="5">
          <mxGeometry relative="1" as="geometry"/>
        </mxCell>
        <mxCell id="e4" style="edgeStyle=orthogonalEdgeStyle;rounded=1;endArrow=block;html=1;" edge="1" parent="1" source="5" target="6">
          <mxGeometry relative="1" as="geometry"/>
        </mxCell>

        <!-- 9. Connections: ALB → API Gateway & Cognito -->
        <mxCell id="e5" style="edgeStyle=orthogonalEdgeStyle;rounded=1;endArrow=block;html=1;" edge="1" parent="1" source="6" target="7">
          <mxGeometry relative="1" as="geometry"/>
        </mxCell>
        <mxCell id="e6" style="edgeStyle=orthogonalEdgeStyle;rounded=1;endArrow=block;html=1;" edge="1" parent="1" source="7" target="8">
          <mxGeometry relative="1" as="geometry"/>
        </mxCell>

        <!-- 10. Connections: API Gateway → EKS Cluster -->
        <mxCell id="e7" style="edgeStyle=orthogonalEdgeStyle;rounded=1;endArrow=block;html=1;" edge="1" parent="1" source="7" target="9">
          <mxGeometry relative="1" as="geometry"/>
        </mxCell>

        <!-- 11. Connections: Onboarding Service → Cognito, RDS, S3, Rekognition -->
        <mxCell id="e8" style="edgeStyle=orthogonalEdgeStyle;rounded=1;endArrow=block;html=1;" edge="1" parent="1" source="10" target="8">
          <mxGeometry relative="1" as="geometry"/>
        </mxCell>
        <mxCell id="e9" style="edgeStyle=orthogonalEdgeStyle;rounded=1;endArrow=block;html=1;" edge="1" parent="1" source="10" target="18">
          <mxGeometry relative="1" as="geometry"/>
        </mxCell>
        <mxCell id="e10" style="edgeStyle=orthogonalEdgeStyle;rounded=1;endArrow=block;html=1;" edge="1" parent="1" source="10" target="21">
          <mxGeometry relative="1" as="geometry"/>
        </mxCell>
        <mxCell id="e11" style="edgeStyle=orthogonalEdgeStyle;rounded=1;endArrow=block;html=1;" edge="1" parent="1" source="10" target="17">
          <mxGeometry relative="1" as="geometry"/>
        </mxCell>

        <!-- 12. Connections: Profile Service → RDS, Redis -->
        <mxCell id="e12" style="edgeStyle=orthogonalEdgeStyle;rounded=1;endArrow=block;html=1;" edge="1" parent="1" source="11" target="18">
          <mxGeometry relative="1" as="geometry"/>
        </mxCell>
        <mxCell id="e13" style="edgeStyle=orthogonalEdgeStyle;rounded=1;endArrow=block;html=1;" edge="1" parent="1" source="11" target="19">
          <mxGeometry relative="1" as="geometry"/>
        </mxCell>

        <!-- 13. Connections: Matching Service → Redis, DynamoDB, RDS -->
        <mxCell id="e14" style="edgeStyle=orthogonalEdgeStyle;rounded=1;endArrow=block;html=1;" edge="1" parent="1" source="12" target="19">
          <mxGeometry relative="1" as="geometry"/>
        </mxCell>
        <mxCell id="e15" style="edgeStyle=orthogonalEdgeStyle;rounded=1;endArrow=block;html=1;" edge="1" parent="1" source="12" target="20">
          <mxGeometry relative="1" as="geometry"/>
        </mxCell>
        <mxCell id="e16" style="edgeStyle=orthogonalEdgeStyle;rounded=1;endArrow=block;html=1;" edge="1" parent="1" source="12" target="18">
          <mxGeometry relative="1" as="geometry"/>
        </mxCell>

        <!-- 14. Connections: Messaging Service → DynamoDB -->
        <mxCell id="e17" style="edgeStyle=orthogonalEdgeStyle;rounded=1;endArrow=block;html=1;" edge="1" parent="1" source="13" target="20">
          <mxGeometry relative="1" as="geometry"/>
        </mxCell>

        <!-- 15. Connections: Notification Service → SNS (external) & FCM (mobile) -->
        <mxCell id="e18" value="→ SNS" style="edgeStyle=orthogonalEdgeStyle;rounded=1;endArrow=block;html=1;" edge="1" parent="1" source="14" target="">
          <mxGeometry relative="1" as="geometry"/>
        </mxCell>
        <mxCell id="e19" value="→ FCM (Mobile Push)" style="edgeStyle=orthogonalEdgeStyle;rounded=1;endArrow=block;html=1;" edge="1" parent="1" source="14" target="2">
          <mxGeometry relative="1" as="geometry"/>
        </mxCell>

        <!-- 16. Connections: Admin Service → RDS, Athena, QuickSight -->
        <mxCell id="e20" style="edgeStyle=orthogonalEdgeStyle;rounded=1;endArrow=block;html=1;" edge="1" parent="1" source="15" target="18">
          <mxGeometry relative="1" as="geometry"/>
        </mxCell>
        <mxCell id="e21" style="edgeStyle=orthogonalEdgeStyle;rounded=1;endArrow=block;html=1;" edge="1" parent="1" source="15" target="19">
          <mxGeometry relative="1" as="geometry"/>
        </mxCell>

        <!-- 17. Connections: Analytics Service → Athena, QuickSight, CloudWatch -->
        <mxCell id="e22" style="edgeStyle=orthogonalEdgeStyle;rounded=1;endArrow=block;html=1;" edge="1" parent="1" source="16" target="24">
          <mxGeometry relative="1" as="geometry"/>
        </mxCell>
        <mxCell id="e23" style="edgeStyle=orthogonalEdgeStyle;rounded=1;endArrow=block;html=1;" edge="1" parent="1" source="16" target="25">
          <mxGeometry relative="1" as="geometry"/>
        </mxCell>

        <!-- 18. Connections: Media Processing → Rekognition & S3 -->
        <mxCell id="e24" style="edgeStyle=orthogonalEdgeStyle;rounded=1;endArrow=block;html=1;" edge="1" parent="1" source="17" target="21">
          <mxGeometry relative="1" as="geometry"/>
        </mxCell>
        <mxCell id="e25" style="edgeStyle=orthogonalEdgeStyle;rounded=1;endArrow=block;html=1;" edge="1" parent="1" source="17" target="21">
          <mxGeometry relative="1" as="geometry"/>
        </mxCell>

        <!-- 19. Connections: CI/CD → EKS Cluster & Monitoring -->
        <mxCell id="e26" style="edgeStyle=orthogonalEdgeStyle;rounded=1;endArrow=block;html=1;" edge="1" parent="1" source="23" target="9">
          <mxGeometry relative="1" as="geometry"/>
        </mxCell>
        <mxCell id="e27" style="edgeStyle=orthogonalEdgeStyle;rounded=1;endArrow=block;html=1;" edge="1" parent="1" source="9" target="24">
          <mxGeometry relative="1" as="geometry"/>
        </mxCell>
        <mxCell id="e28" style="edgeStyle=orthogonalEdgeStyle;rounded=1;endArrow=block;html=1;" edge="1" parent="1" source="9" target="25">
          <mxGeometry relative="1" as="geometry"/>
        </mxCell>

      </root>
    </mxGraphModel>
  </diagram>
</mxfile>
